<svg xmlns="http://www.w3.org/2000/svg" width="37" height="37" viewBox="0 0 37 37">
  <path id="adobe-xd-icon-dark-mode" d="M30.448.45H6.552A6.632,6.632,0,0,0,0,7.17V30.73a6.632,6.632,0,0,0,6.552,6.72h23.9A6.632,6.632,0,0,0,37,30.73V7.17A6.632,6.632,0,0,0,30.448.45Zm4.995,29.663a5.805,5.805,0,0,1-1.625,4.066,5.516,5.516,0,0,1-3.956,1.689H7.138a5.679,5.679,0,0,1-5.6-5.74V7.771a5.679,5.679,0,0,1,5.6-5.74H29.847a5.669,5.669,0,0,1,5.6,5.74ZM14.63,17.764l4.317,8.507c.077.126.031.253-.093.253H16.172a.3.3,0,0,1-.324-.206c-.987-2.087-1.989-4.174-3.022-6.42H12.8c-.925,2.119-1.943,4.348-2.929,6.435a.3.3,0,0,1-.278.174H7.045c-.154,0-.17-.126-.093-.221l4.224-8.254L7.092,9.684c-.093-.126,0-.221.093-.221H9.836a.242.242,0,0,1,.278.174c.971,2.087,1.958,4.238,2.883,6.341h.031c.894-2.087,1.881-4.253,2.837-6.325.077-.126.123-.206.278-.206h2.482c.123,0,.17.095.092.221ZM19.7,20.341c0-3.684,2.39-6.562,6.182-6.562a6.667,6.667,0,0,1,.8.032V9.621a.156.156,0,0,1,.154-.158h2.436c.123,0,.154.047.154.126V24.1a11.548,11.548,0,0,0,.077,1.55c0,.095-.031.126-.123.174a8.992,8.992,0,0,1-3.947.917C22.092,26.761,19.7,24.642,19.7,20.341Zm6.984-4.048a2.28,2.28,0,0,0-.894-.158c-1.942,0-3.3,1.534-3.3,4.079,0,2.909,1.388,4.079,3.13,4.079a2.843,2.843,0,0,0,1.064-.174V16.294Z" transform="translate(0 -0.45)" fill="#f5f7fb"/>
</svg>
