<svg xmlns="http://www.w3.org/2000/svg" width="87.161" height="92.151" viewBox="0 0 87.161 92.151">
  <g id="as-logo-border" transform="translate(-258.209 126.906)">
    <g id="Group_27" data-name="Group 27" transform="translate(461.209 -536.046)">
      <path id="Union_2" data-name="Union 2" d="M17.714,71.35a5.479,5.479,0,0,1-.455-.789H-3.3L40.121-4.158l4.033,7.711a20.342,20.342,0,0,1,3.173-.372C62.681,2.558,73,15.3,74.2,26.7L61.919,37.52,79.2,70.561H60.7C56.17,76.9,47.875,83.755,39.5,83.772h-.078C26.482,83.772,21.607,77.072,17.714,71.35Z" transform="translate(-197.31 416.144)" fill="none" stroke="#c8c8c8" stroke-linecap="round" stroke-width="2.75"/>
    </g>
    <g id="Group_25" data-name="Group 25" transform="translate(472.411 -525.512)">
      <path id="Path_51" data-name="Path 51" d="M29-.787l25.5,50.25H-.25Z" transform="translate(-197.687 418.597)" fill="#e6e6e6"/>
      <path id="Exclusion_1" data-name="Exclusion 1" d="M29.248,65h0a21,21,0,0,1-3.688-.337C15.253,62.817,13.245,54.595,12.876,52.119H44.7c-.387-2.967-4.4-10.032-8.639-17.512q-.594-1.048-1.189-2.1l9.06-7.787h0L32.259,2.764A15.622,15.622,0,0,1,40.709.448a15.059,15.059,0,0,1,10.9,4.169,19.678,19.678,0,0,1,5.044,9.171L43.934,24.722h0L58.5,52.118H44.7a3.444,3.444,0,0,1,.03.375,8.954,8.954,0,0,1-.887,3.811,13.919,13.919,0,0,1-2.707,3.886A16.425,16.425,0,0,1,29.248,65ZM12.876,52.119H0L30.79,0l1.469,2.764A12.6,12.6,0,0,0,26.381,14.57c.308,3.252,4.193,10.341,8.491,17.939L12.8,51.478s.013.229.074.64Z" transform="translate(-199.812 416.317)" fill="#00e5f6" stroke="#c8c8c8" stroke-linecap="round" stroke-width="2.5"/>
    </g>
  </g>
</svg>
