<svg xmlns="http://www.w3.org/2000/svg" width="207.265" height="92.151" viewBox="0 0 207.265 92.151">
  <g id="as-logo-with-name" transform="translate(-144.11 -43.189)">
    <g id="Group_26" data-name="Group 26" transform="translate(-114.099 170.095)">
      <g id="Group_27" data-name="Group 27" transform="translate(461.209 -536.046)">
        <path id="Union_2" data-name="Union 2" d="M17.714,71.35a5.479,5.479,0,0,1-.455-.789H-3.3L40.121-4.158l4.033,7.711a20.342,20.342,0,0,1,3.173-.372C62.681,2.558,73,15.3,74.2,26.7L61.919,37.52,79.2,70.561H60.7C56.17,76.9,47.875,83.755,39.5,83.772h-.078C26.482,83.772,21.607,77.072,17.714,71.35Z" transform="translate(-197.31 416.144)" fill="none" stroke="#c8c8c8" stroke-linecap="round" stroke-width="2.75"/>
      </g>
      <g id="Group_25" data-name="Group 25" transform="translate(472.411 -525.512)">
        <path id="Path_51" data-name="Path 51" d="M29-.787l25.5,50.25H-.25Z" transform="translate(-197.687 418.597)" fill="#e6e6e6"/>
        <path id="Exclusion_1" data-name="Exclusion 1" d="M29.248,65h0a21,21,0,0,1-3.688-.337C15.253,62.817,13.245,54.595,12.876,52.119H44.7c-.387-2.967-4.4-10.032-8.639-17.512q-.594-1.048-1.189-2.1l9.06-7.787h0L32.259,2.764A15.622,15.622,0,0,1,40.709.448a15.059,15.059,0,0,1,10.9,4.169,19.678,19.678,0,0,1,5.044,9.171L43.934,24.722h0L58.5,52.118H44.7a3.444,3.444,0,0,1,.03.375,8.954,8.954,0,0,1-.887,3.811,13.919,13.919,0,0,1-2.707,3.886A16.425,16.425,0,0,1,29.248,65ZM12.876,52.119H0L30.79,0l1.469,2.764A12.6,12.6,0,0,0,26.381,14.57c.308,3.252,4.193,10.341,8.491,17.939L12.8,51.478s.013.229.074.64Z" transform="translate(-199.812 416.317)" fill="#00e5f6" stroke="#c8c8c8" stroke-linecap="round" stroke-width="2.5"/>
      </g>
    </g>
    <path id="Path_62" data-name="Path 62" d="M7.2,10.5,5.5,16.379H8.859ZM5.566,6.348H8.883L14.5,23H10.9L9.715,19.18H4.582L3.457,23H-.07ZM17.449,8.457V5.773h6.5V20.34H27.8V23H16.605V20.34h3.961V8.457Zm21,6.668a3.206,3.206,0,0,0-.645-1.963,2.07,2.07,0,0,0-3.135.041,3.116,3.116,0,0,0-.686,1.922Zm-.387,4.418h3.609A6.1,6.1,0,0,1,39.6,22.52a5.849,5.849,0,0,1-3.463.938,4.99,4.99,0,0,1-4.078-1.852,7.777,7.777,0,0,1-1.512-5.062A7.677,7.677,0,0,1,32.08,11.5a5.091,5.091,0,0,1,4.143-1.852A5.192,5.192,0,0,1,40.5,11.469a8.167,8.167,0,0,1,1.477,5.262q0,.363-.006.545t-.018.322H33.914a4.152,4.152,0,0,0,.762,2.25,2,2,0,0,0,1.641.8,1.89,1.89,0,0,0,1.037-.287A1.957,1.957,0,0,0,38.063,19.543Zm10.828-3.187-4.324-6.246h3.8l2.18,3.7,2.191-3.7h3.809l-4.289,6.246L56.859,23H53.016l-2.449-4.078L48.105,23H44.262ZM66.34,18.395V16.906a3.036,3.036,0,0,1-1.559.586q-.621.117-.961.2a1.526,1.526,0,0,0-.867.557,1.743,1.743,0,0,0-.281,1.037,1.481,1.481,0,0,0,.375,1.049,1.252,1.252,0,0,0,.961.4,2.274,2.274,0,0,0,2.332-2.344ZM63.27,14H59.977v-.187A3.777,3.777,0,0,1,61.3,10.777a5.339,5.339,0,0,1,3.574-1.125,5.619,5.619,0,0,1,3.639.973A3.731,3.731,0,0,1,69.68,13.66v5.719a1.867,1.867,0,0,0,.193,1.043.875.875,0,0,0,.721.246,2.159,2.159,0,0,0,.252-.018l.322-.041v2.484q-.375.094-.715.146a4.28,4.28,0,0,1-.656.053,2.949,2.949,0,0,1-1.752-.434,2.133,2.133,0,0,1-.768-1.418,5.564,5.564,0,0,1-1.775,1.5,4.467,4.467,0,0,1-2.092.516,3.958,3.958,0,0,1-2.982-1.107,4.187,4.187,0,0,1-1.072-3.041,4.061,4.061,0,0,1,1.066-2.959,5.052,5.052,0,0,1,3.129-1.342l.9-.094q1.934-.2,1.934-1.3a1.205,1.205,0,0,0-.375-.967,1.709,1.709,0,0,0-1.137-.322,1.609,1.609,0,0,0-1.213.41A1.774,1.774,0,0,0,63.27,14ZM12.984,40.316H9.34v-.2A2.066,2.066,0,0,0,8.754,38.6a2.035,2.035,0,0,0-1.512-.592,2.133,2.133,0,0,0-1.512.533,1.808,1.808,0,0,0-.574,1.389,1.6,1.6,0,0,0,.557,1.318,7.284,7.284,0,0,0,2.643.885,8.3,8.3,0,0,1,4.055,1.693,4.2,4.2,0,0,1,1.055,3.088,5.113,5.113,0,0,1-1.693,4.066,6.905,6.905,0,0,1-4.693,1.477,5.973,5.973,0,0,1-4.365-1.588A6.174,6.174,0,0,1,.984,46.5H4.559a3.009,3.009,0,0,0,.768,2.057,2.48,2.48,0,0,0,1.893.779,2.854,2.854,0,0,0,1.922-.6,2.043,2.043,0,0,0,.7-1.635q0-1.5-3.363-2.227-.422-.094-.645-.152a6.349,6.349,0,0,1-3.3-1.582,4.158,4.158,0,0,1-1.02-2.977,4.994,4.994,0,0,1,1.529-3.8,5.6,5.6,0,0,1,4.014-1.447,6.287,6.287,0,0,1,4.383,1.406A5.126,5.126,0,0,1,12.984,40.316Zm7.582-5.543h3.387v3.258H20.566ZM27.645,49.34V52H16.465V49.34h4.1V42.227H17.449V39.543h6.5v9.8Zm11.648-6.891v-.164a1.015,1.015,0,0,0-.2-.691.761.761,0,0,0-.6-.223.927.927,0,0,0-.738.311,1.271,1.271,0,0,0-.27.861V52H34.781V42.285a1.056,1.056,0,0,0-.187-.7.734.734,0,0,0-.586-.217.958.958,0,0,0-.756.311,1.253,1.253,0,0,0-.275.861V52H30.27V39.109h2.473V40.48a3.179,3.179,0,0,1,.832-1.354,1.753,1.753,0,0,1,1.207-.475,1.927,1.927,0,0,1,1.33.5,2.54,2.54,0,0,1,.756,1.377,4.323,4.323,0,0,1,1.143-1.418,2.449,2.449,0,0,1,3.381.516A7.015,7.015,0,0,1,42,43.094V52H39.293Zm11.273-.937a1.855,1.855,0,0,0-1.67,1.037,5.8,5.8,0,0,0-.6,2.9,6.5,6.5,0,0,0,.58,3.07,1.891,1.891,0,0,0,3.387.012,6.138,6.138,0,0,0,.592-2.988,6.138,6.138,0,0,0-.592-2.988A1.855,1.855,0,0,0,50.566,41.512Zm-5.707,4.055a7.779,7.779,0,0,1,1.506-5.086,5.116,5.116,0,0,1,4.178-1.828,5.2,5.2,0,0,1,4.225,1.822,7.733,7.733,0,0,1,1.518,5.092,7.731,7.731,0,0,1-1.506,5.074,5.17,5.17,0,0,1-4.213,1.816,5.164,5.164,0,0,1-4.2-1.811A7.726,7.726,0,0,1,44.859,45.566Zm14.859-6.457h3.434v1.969a4.566,4.566,0,0,1,1.465-1.834,3.694,3.694,0,0,1,2.109-.568,3.374,3.374,0,0,1,2.848,1.072q.82,1.072.82,4.424V52H66.961V44.828a6.213,6.213,0,0,0-.352-2.689,1.34,1.34,0,0,0-1.23-.557,1.811,1.811,0,0,0-1.717.9,6.781,6.781,0,0,0-.51,3.105V52H59.719Zm20.473,7.781-2.039-.363A4.9,4.9,0,0,1,75.41,45.25a3.357,3.357,0,0,1-.961-2.461,3.73,3.73,0,0,1,1.3-3.023,5.475,5.475,0,0,1,3.621-1.09,5.809,5.809,0,0,1,3.715,1.09,3.536,3.536,0,0,1,1.371,2.918v.047H81.176a1.213,1.213,0,0,0-.533-.955,2.214,2.214,0,0,0-1.318-.357,1.763,1.763,0,0,0-1.113.328,1.045,1.045,0,0,0-.422.867,1.162,1.162,0,0,0,.334.838,1.563,1.563,0,0,0,.9.439l1.863.3a5.448,5.448,0,0,1,2.971,1.266,3.393,3.393,0,0,1,.967,2.555,3.993,3.993,0,0,1-1.43,3.27,6.177,6.177,0,0,1-4.02,1.172,5.733,5.733,0,0,1-3.885-1.189A4.352,4.352,0,0,1,74.1,47.852h3.258a1.883,1.883,0,0,0,.592,1.342,2.1,2.1,0,0,0,1.447.475,2.535,2.535,0,0,0,1.512-.4,1.252,1.252,0,0,0,.551-1.066,1.2,1.2,0,0,0-.328-.867A1.654,1.654,0,0,0,80.191,46.891Zm11.52.691h4.418V52H91.711Z" transform="translate(245 56)" fill="#f5f7fb"/>
    <path id="Path_52" data-name="Path 52" d="M-.786.214H120.5V-69.5H14.5" transform="translate(229.5 120.5)" fill="none" stroke="#c8c8c8" stroke-width="2.75"/>
    <g id="Ellipse_9" data-name="Ellipse 9" transform="translate(236 47)" fill="none" stroke="#c8c8c8" stroke-width="2.5">
      <circle cx="5" cy="5" r="5" stroke="none"/>
      <circle cx="5" cy="5" r="3.75" fill="none"/>
    </g>
  </g>
</svg>
