<svg xmlns="http://www.w3.org/2000/svg" width="37" height="37" viewBox="0 0 37 37">
  <path id="excel-icon-dark-mode" d="M36.311,4.856h-12.4V7.192H27.57v3.7H23.916v1.178H27.57v3.7H23.916v1.211H27.57v3.5H23.916v1.4H27.57v3.508H23.916v1.4H27.57V30.32H23.916v2.574h12.4c.2-.06.359-.3.49-.7a3.5,3.5,0,0,0,.2-1V5.283c0-.2-.068-.322-.2-.364A1.667,1.667,0,0,0,36.311,4.856ZM34.7,30.317H28.757V26.792H34.7v3.525Zm0-4.928H28.757V21.88H34.7Zm0-4.912H28.757V16.993H34.7v3.485Zm0-4.711H28.757v-3.7H34.7v3.7Zm0-4.9H28.757V7.194H34.7v3.675ZM0,4.273v29.21l21.83,3.846v-37L0,4.286Zm12.939,22.1q-.125-.344-1.169-2.926c-.692-1.721-1.11-2.723-1.232-3.009H10.5L8.159,26.112,5.029,25.9,8.741,18.83l-3.4-7.066,3.191-.171,2.109,5.529h.042l2.382-5.78,3.3-.212-3.927,7.647,4.047,7.8-3.544-.212Z" transform="translate(0 -0.329)" fill="#f5f7fb"/>
</svg>
