<svg xmlns="http://www.w3.org/2000/svg" width="30.897" height="30.806" viewBox="0 0 30.897 30.806">
  <path id="github-icon" d="M9.749,24.332c0,.12-.135.216-.306.216-.194.018-.329-.078-.329-.216,0-.12.135-.216.306-.216C9.6,24.1,9.749,24.193,9.749,24.332Zm-1.828-.27c-.041.12.076.258.253.294a.273.273,0,0,0,.364-.12c.035-.12-.076-.258-.253-.312A.3.3,0,0,0,7.921,24.061Zm2.6-.1c-.17.042-.288.156-.27.294.018.12.17.2.347.156s.288-.156.27-.276S10.689,23.941,10.519,23.959ZM14.385.938A14.25,14.25,0,0,0,0,15.6a15.042,15.042,0,0,0,9.96,14.37c.752.138,1.017-.336,1.017-.727,0-.372-.018-2.427-.018-3.689,0,0-4.113.9-4.977-1.79,0,0-.67-1.748-1.634-2.2,0,0-1.346-.943.094-.925a3.091,3.091,0,0,1,2.268,1.55,3.069,3.069,0,0,0,4.284,1.256,3.368,3.368,0,0,1,.94-2.025c-3.285-.372-6.6-.859-6.6-6.639a4.605,4.605,0,0,1,1.387-3.539,5.794,5.794,0,0,1,.153-4.079C8.1,6.771,10.93,8.784,10.93,8.784a13.59,13.59,0,0,1,7.381,0s2.827-2.019,4.055-1.622a5.792,5.792,0,0,1,.153,4.079,4.717,4.717,0,0,1,1.516,3.539c0,5.8-3.461,6.26-6.746,6.639a3.6,3.6,0,0,1,1,2.788c0,2.025-.018,4.53-.018,5.022,0,.39.27.865,1.017.727A14.906,14.906,0,0,0,29.147,15.6,14.562,14.562,0,0,0,14.385.938ZM5.712,21.658c-.076.06-.059.2.041.312.094.1.229.138.306.06.076-.06.059-.2-.041-.312C5.923,21.622,5.788,21.58,5.712,21.658Zm-.635-.487c-.041.078.018.174.135.234a.173.173,0,0,0,.253-.042c.041-.078-.018-.174-.135-.234C5.212,21.093,5.118,21.111,5.077,21.171Zm1.9,2.139c-.094.078-.059.258.076.372.135.138.306.156.382.06.076-.078.041-.258-.076-.372C7.234,23.232,7.057,23.214,6.981,23.31Zm-.67-.883c-.094.06-.094.216,0,.354s.253.2.329.138a.279.279,0,0,0,0-.372C6.558,22.409,6.405,22.349,6.311,22.427Z" transform="translate(0.875 -0.063)" fill="none" stroke="#f5f7fb" stroke-width="1.75"/>
</svg>
