<svg xmlns="http://www.w3.org/2000/svg" width="37" height="37" viewBox="0 0 37 37">
  <path id="javascript-icon-dark-mode" d="M0,0H37V37H0ZM33.969,28.175c-.27-1.688-1.369-3.106-4.63-4.429-1.135-.532-2.4-.9-2.77-1.757A1.82,1.82,0,0,1,26.5,20.9a1.767,1.767,0,0,1,2.336-1.017,2.508,2.508,0,0,1,1.5,1.387c1.594-1.042,1.594-1.042,2.706-1.734a6.363,6.363,0,0,0-.9-1.2,5.178,5.178,0,0,0-4.369-1.594l-1.087.137a4.97,4.97,0,0,0-2.636,1.549,4.837,4.837,0,0,0,.877,6.893c2.1,1.573,5.182,1.918,5.575,3.4.37,1.8-1.341,2.382-3.031,2.174a4.059,4.059,0,0,1-2.706-2.06l-2.821,1.62a6.234,6.234,0,0,0,1.249,1.71c2.682,2.707,9.389,2.568,10.593-1.548a5.218,5.218,0,0,0,.114-2.544ZM20.12,17.006H16.655c0,2.988-.014,5.957-.014,8.949,0,1.9.1,3.643-.213,4.179-.509,1.062-1.819.927-2.414.74a2.975,2.975,0,0,1-1.28-1.318,1.323,1.323,0,0,0-.2-.3L9.725,30.989a5.453,5.453,0,0,0,2.041,2.339,6.785,6.785,0,0,0,4.944.624A4.33,4.33,0,0,0,19.5,31.777c.786-1.434.62-3.191.612-5.158.018-3.167,0-6.335,0-9.526l.006-.086Z" fill="#f5f7fb"/>
</svg>
