<svg xmlns="http://www.w3.org/2000/svg" width="37" height="37" viewBox="0 0 37 37">
  <g id="photoshop-icon-dark-mode" transform="translate(-1092.468 -3126.971)">
    <path id="border-path" d="M30.448.45H6.552A6.632,6.632,0,0,0,0,7.17V30.73a6.632,6.632,0,0,0,6.552,6.72h23.9A6.632,6.632,0,0,0,37,30.73V7.17A6.632,6.632,0,0,0,30.448.45Zm4.995,29.663a5.805,5.805,0,0,1-1.625,4.066,5.516,5.516,0,0,1-3.956,1.689H7.138a5.679,5.679,0,0,1-5.6-5.74V7.771a5.679,5.679,0,0,1,5.6-5.74H29.847a5.669,5.669,0,0,1,5.6,5.74Z" transform="translate(1092.468 3126.521)" fill="#f5f7fb"/>
    <path id="PS-path" d="M8.942,9.115c0-.106.216-.183.345-.183.993-.052,2.448-.079,3.974-.079,4.274,0,5.935,2.4,5.935,5.48,0,4.016-2.84,5.74-6.324,5.74-.586,0-.786-.027-1.195-.027v6.075c0,.131-.051.183-.177.183H9.12c-.128,0-.177-.047-.177-.179V9.115Zm2.736,8.4c.355.025.635.025,1.249.025,1.8,0,3.5-.651,3.5-3.156,0-2.008-1.212-3.026-3.271-3.026-.61,0-1.195.025-1.475.052v6.11Zm13.269-1.878c-1.221,0-1.628.626-1.628,1.148,0,.574.278.965,1.907,1.826,2.417,1.2,3.179,2.348,3.179,4.043,0,2.53-1.881,3.89-4.425,3.89a6.6,6.6,0,0,1-3.16-.68c-.1-.052-.123-.13-.123-.261v-2.32c0-.158.074-.21.176-.133a5.576,5.576,0,0,0,3.1.939c1.221,0,1.73-.522,1.73-1.227,0-.574-.355-1.07-1.907-1.905-2.189-1.075-3.1-2.166-3.1-4,0-2.035,1.551-3.732,4.247-3.732a7.025,7.025,0,0,1,2.766.443.348.348,0,0,1,.154.313v2.166c0,.131-.077.21-.231.158a5.412,5.412,0,0,0-2.687-.68Z" transform="translate(1092 3126.521)" fill="#f5f7fb"/>
  </g>
</svg>
