<svg xmlns="http://www.w3.org/2000/svg" width="37" height="37" viewBox="0 0 37 37">
  <path id="power-point-icon-dark-mode" d="M36.2,6.428H23.036v5.184a4.438,4.438,0,0,1,2.86-.957V15.7h4.739a5.147,5.147,0,0,1-1.389,3.568,4.6,4.6,0,0,1-3.373,1.49,4.779,4.779,0,0,1-2.82-1v3.464H33.411v1.7H23.049v2.1H33.4V28.7H23.043v3.807h13.17c.533,0,.786-.3.786-.874V7.258c0-.556-.253-.83-.786-.83ZM26.64,14.866V9.783a4.622,4.622,0,0,1,3.373,1.481,5.174,5.174,0,0,1,1.4,3.6Zm-13.912.085a1.588,1.588,0,0,0-.405-.768,1.664,1.664,0,0,0-.745-.4,3.862,3.862,0,0,0-1.064-.146l-1.11.023v4.88h.04a10.359,10.359,0,0,0,1.272,0,2.842,2.842,0,0,0,1.247-.366,2.187,2.187,0,0,0,.865-1.487,4.329,4.329,0,0,0-.1-1.808v.073ZM0,4.9V34.1l21.1,3.848v-37ZM15.745,18.055a4.367,4.367,0,0,1-2.6,2.709,9.682,9.682,0,0,1-3.745.454v5.568l-2.777-.34v-15.3l4.408-.242a6.479,6.479,0,0,1,2.414.293,3.33,3.33,0,0,1,1.885,1.5,5.567,5.567,0,0,1,.786,2.611A6.725,6.725,0,0,1,15.745,18.055Z" transform="translate(0 -0.945)" fill="#f5f7fb"/>
</svg>
