<svg xmlns="http://www.w3.org/2000/svg" width="37" height="37" viewBox="0 0 37 37">
  <path id="python-icon-dark-mode" d="M36.322,16.166c-.636-2.552-1.842-4.476-4.41-4.476H28.6V15.6a5.664,5.664,0,0,1-5.517,5.6h-8.82a4.5,4.5,0,0,0-4.41,4.484V34.1c0,2.4,2.081,3.8,4.41,4.484a14.841,14.841,0,0,0,8.82,0c2.222-.644,4.41-1.941,4.41-4.484V30.734H18.681V29.611h13.23c2.568,0,3.518-1.792,4.41-4.476.925-2.767.884-5.426,0-8.969ZM23.636,32.972a1.681,1.681,0,1,1-1.66,1.677A1.669,1.669,0,0,1,23.636,32.972ZM13.858,20.1h8.82a4.447,4.447,0,0,0,4.41-4.484V7.2a4.93,4.93,0,0,0-4.41-4.592,27.223,27.223,0,0,0-8.82.008c-3.733.661-4.41,2.04-4.41,4.592v3.361h8.829V11.69H6.136A5.513,5.513,0,0,0,.619,16.166a16.541,16.541,0,0,0,0,8.969c.628,2.61,2.122,4.476,4.691,4.476H8.341v-4.03A5.608,5.608,0,0,1,13.858,20.1ZM13.3,8.32a1.681,1.681,0,1,1,1.66-1.677A1.669,1.669,0,0,1,13.3,8.32Z" transform="translate(0 -2.25)" fill="#f5f7fb"/>
</svg>
