<svg xmlns="http://www.w3.org/2000/svg" width="41" height="37" viewBox="0 0 41 37">
  <path id="react-icon-dark-mode" d="M33.489,15.742q-.649-.223-1.3-.421c.072-.306.136-.611.2-.917.985-4.922.336-8.878-1.85-10.183-2.106-1.247-5.541.05-9.017,3.171-.344.306-.681.628-1,.95-.216-.215-.44-.429-.665-.636-3.644-3.336-7.3-4.74-9.481-3.427-2.1,1.255-2.723,4.98-1.842,9.638.088.462.184.917.3,1.379-.512.149-1.017.314-1.489.487C3.067,17.311,0,19.722,0,22.216c0,2.577,3.267,5.162,7.712,6.731.36.124.721.248,1.089.355-.12.5-.224.983-.32,1.487-.841,4.583-.184,8.217,1.914,9.464,2.162,1.288,5.8-.033,9.337-3.229.28-.256.561-.52.841-.8.352.355.721.694,1.089,1.024,3.427,3.039,6.815,4.27,8.9,3.023,2.162-1.288,2.867-5.195,1.954-9.951q-.108-.545-.24-1.115c.256-.074.5-.157.753-.239C37.653,27.386,41,24.834,41,22.216,41,19.714,37.845,17.286,33.489,15.742ZM22.654,8.73c2.979-2.676,5.758-3.725,7.023-2.973,1.353.8,1.874,4.038,1.025,8.292-.056.281-.112.553-.184.826A39.844,39.844,0,0,0,25.129,14a41.529,41.529,0,0,0-3.411-4.385C22.029,9.308,22.334,9.019,22.654,8.73ZM13.389,26.5c.408.718.825,1.437,1.265,2.139a35.247,35.247,0,0,1-3.716-.619c.352-1.189.793-2.42,1.305-3.675C12.612,25.074,12.989,25.792,13.389,26.5Zm-2.426-9.935c1.153-.264,2.378-.479,3.652-.644-.424.685-.841,1.387-1.233,2.1s-.777,1.42-1.137,2.147C11.739,18.938,11.315,17.732,10.963,16.568Zm2.194,5.69c.529-1.14,1.105-2.255,1.714-3.353s1.265-2.164,1.954-3.213c1.2-.091,2.426-.14,3.676-.14s2.482.05,3.676.14q1.021,1.561,1.946,3.2t1.738,3.336q-.8,1.71-1.73,3.369c-.609,1.1-1.257,2.164-1.938,3.221-1.193.091-2.434.132-3.692.132s-2.474-.041-3.652-.116q-1.045-1.573-1.97-3.221C14.262,24.512,13.693,23.4,13.157,22.258Zm14.462,4.228c.408-.727.793-1.462,1.169-2.205.512,1.2.961,2.411,1.353,3.659a34.2,34.2,0,0,1-3.764.661C26.81,27.907,27.219,27.2,27.619,26.486Zm1.153-6.318c-.376-.727-.761-1.453-1.161-2.164s-.8-1.4-1.225-2.081a35.834,35.834,0,0,1,3.676.661A37.283,37.283,0,0,1,28.772,20.168Zm-8.256-9.291a36.046,36.046,0,0,1,2.37,2.957c-1.586-.074-3.179-.074-4.765,0C18.906,12.769,19.715,11.778,20.516,10.878ZM11.227,5.815c1.345-.809,4.332.347,7.479,3.221.2.182.4.38.609.578A41.747,41.747,0,0,0,15.879,14a41.024,41.024,0,0,0-5.381.859c-.1-.421-.192-.851-.28-1.28C9.465,9.581,9.962,6.567,11.227,5.815ZM9.265,27.584c-.336-.1-.665-.206-.993-.322a16.14,16.14,0,0,1-5.045-2.577,3.721,3.721,0,0,1-1.505-2.469c0-1.511,2.53-3.444,6.182-4.757.456-.165.921-.314,1.385-.454a44.763,44.763,0,0,0,1.962,5.252A46.018,46.018,0,0,0,9.265,27.584ZM18.6,35.678a14.6,14.6,0,0,1-4.516,2.915,3.446,3.446,0,0,1-2.827.107c-1.273-.76-1.8-3.675-1.081-7.6.088-.462.184-.925.3-1.379a38.923,38.923,0,0,0,5.437.809,43.36,43.36,0,0,0,3.459,4.41C19.115,35.2,18.858,35.447,18.6,35.678Zm1.962-2.007c-.817-.908-1.634-1.916-2.426-3,.769.033,1.562.05,2.362.05.825,0,1.634-.017,2.434-.058A35.425,35.425,0,0,1,20.564,33.671ZM31.03,36.148a3.706,3.706,0,0,1-1.321,2.585c-1.273.76-3.988-.231-6.919-2.824-.336-.3-.673-.619-1.017-.95a40.693,40.693,0,0,0,3.379-4.427,38.364,38.364,0,0,0,5.461-.867c.08.339.152.677.216,1.008A15.516,15.516,0,0,1,31.03,36.148Zm1.457-8.878c-.224.074-.448.149-.681.215a42.731,42.731,0,0,0-2.042-5.269,42.541,42.541,0,0,0,1.962-5.195c.416.124.817.256,1.2.388,3.732,1.321,6.35,3.287,6.35,4.79C39.278,23.819,36.484,25.908,32.488,27.271ZM20.5,26.032a3.784,3.784,0,1,0-3.668-3.782A3.726,3.726,0,0,0,20.5,26.032Z" transform="translate(0 -3.751)" fill="#f5f7fb"/>
</svg>
