<svg xmlns="http://www.w3.org/2000/svg" width="37" height="37" viewBox="0 0 37 37">
  <path id="redux-icon-dark-mode" d="M25.645,26.753A2.664,2.664,0,0,0,27.956,23.9a2.731,2.731,0,0,0-2.633-2.679h-.094A2.723,2.723,0,0,0,22.687,24.1a3.048,3.048,0,0,0,.762,1.874,17.454,17.454,0,0,1-7.715,7.8,12.093,12.093,0,0,1-7.623,1.51,6.589,6.589,0,0,1-4.8-2.923,7.6,7.6,0,0,1-.393-7.7A11.324,11.324,0,0,1,6.15,20.687,16.892,16.892,0,0,1,5.5,18.181C-1.337,23.345-.641,30.408,1.437,33.745a9.658,9.658,0,0,0,8.178,3.993,11.4,11.4,0,0,0,2.842-.315A18.239,18.239,0,0,0,25.623,26.8l.022-.05Zm8.245-6.09a18.643,18.643,0,0,0-14.854-6.869H18.25a2.474,2.474,0,0,0-2.308-1.462h-.069a2.669,2.669,0,0,0-2.539,2.85,2.731,2.731,0,0,0,2.633,2.679h.114a2.617,2.617,0,0,0,2.31-1.705h.856a17.244,17.244,0,0,1,10,3.238,13.218,13.218,0,0,1,4.989,6.334,7.056,7.056,0,0,1-.069,5.848A6.831,6.831,0,0,1,27.7,35.668a11.54,11.54,0,0,1-4.574-1.047c-.554.484-1.479,1.289-2.149,1.777a14.208,14.208,0,0,0,6.075,1.533,10.224,10.224,0,0,0,9.124-5.261c1.385-2.923,1.27-7.843-2.265-12.056ZM10.006,27.628a2.728,2.728,0,0,0,2.633,2.679h.093a2.784,2.784,0,0,0-.069-5.552h-.094a.946.946,0,0,0-.347.047A18.993,18.993,0,0,1,9.8,13.794a13.649,13.649,0,0,1,2.771-7.7A8.029,8.029,0,0,1,18.344,3.32c4.989-.1,7.069,6.456,7.229,9.062l2.31.73C27.351,5.123,22.641.931,18.136.931c-4.228,0-8.13,3.24-9.7,7.99C6.286,15.256,7.7,21.344,10.328,26.216a2.246,2.246,0,0,0-.322,1.411Z" transform="translate(0 -0.931)" fill="#f5f7fb"/>
</svg>
