<svg xmlns="http://www.w3.org/2000/svg" width="37" height="37" viewBox="0 0 37 37">
  <path id="sass-icon-dark-mode" d="M18.5,0A18.5,18.5,0,1,1,0,18.5,18.5,18.5,0,0,1,18.5,0ZM14.823,24.664a4.728,4.728,0,0,1-.037,2.763l-.1.278c-.037.094-.08.185-.12.271a5.186,5.186,0,0,1-.856,1.249c-1.076,1.17-2.578,1.614-3.222,1.241-.694-.4-.348-2.058.9-3.376a12.586,12.586,0,0,1,3.268-2.326v0l.167-.094ZM30.1,7.92C29.267,4.631,23.817,3.55,18.66,5.383A25.917,25.917,0,0,0,9.884,10.42c-2.841,2.653-3.293,4.966-3.106,5.932.658,3.409,5.33,5.638,7.25,7.292v.009c-.566.278-4.711,2.357-5.683,4.509-1.041,2.266.162,3.887.948,4.093a5.845,5.845,0,0,0,6.267-2.542,6.4,6.4,0,0,0,.623-5.667A7.193,7.193,0,0,1,19,23.887c3.239.37,3.887,2.405,3.746,3.238a2.223,2.223,0,0,1-1.039,1.455c-.231.14-.3.185-.279.279.023.139.14.139.324.116a2.565,2.565,0,0,0,1.759-2.268c.069-1.989-1.828-4.207-5.2-4.163a8.338,8.338,0,0,0-2.891.395.559.559,0,0,0-.162-.162c-2.081-2.243-5.943-3.816-5.781-6.8.046-1.087.439-3.953,7.4-7.422C22.59,5.71,27.147,6.5,27.933,8.232c1.13,2.473-2.43,7.076-8.373,7.745a4.46,4.46,0,0,1-3.748-.948c-.322-.347-.368-.37-.484-.3-.185.092-.069.393,0,.578A3.56,3.56,0,0,0,17.481,17a11.368,11.368,0,0,0,6.938-.694C28,14.917,30.8,11.054,29.99,7.816l.113.1Z" fill="#f5f7fb"/>
</svg>
