<svg xmlns="http://www.w3.org/2000/svg" width="37" height="37" viewBox="0 0 37 37">
  <path id="word-icon-dark-mode" d="M37,6v26.94a.749.749,0,0,1-.23.563.76.76,0,0,1-.555.225H23.02V29.988H33.784v-1.7H23.01V26.2H33.775V24.5H23.018V22.4H33.779v-1.68H23.018V18.619H33.779v-1.7H23.018V14.837H33.779v-1.7H23.018V11.014H33.779V9.4H23.018V5.174h13.2a.678.678,0,0,1,.552.243A.777.777,0,0,1,37,6ZM21.045.962V37.956L0,34.11V4.912L21.045.956ZM17.869,11.883l-2.635.171L13.544,23.1h-.039c-.083-.523-.393-2.353-.948-5.482l-.985-5.312-2.473.13-.99,5.182c-.578,3.018-.9,4.775-.985,5.269H7.1L5.6,12.712l-2.266.127L5.76,25.673l2.519.171.948-4.995c.555-2.931.879-4.634.948-5.1h.069c.094.5.395,2.237.948,5.226l.948,5.142,2.729.171L17.923,11.88h-.054Z" transform="translate(0 -0.956)" fill="#f5f7fb"/>
</svg>
